<?xml version="1.0" encoding="utf-8"?>
<!-- Generator: Adobe Illustrator 23.0.0, SVG Export Plug-In . SVG Version: 6.00 Build 0)  -->
<svg version="1.1" id="图层_1" xmlns="http://www.w3.org/2000/svg" xmlns:xlink="http://www.w3.org/1999/xlink" x="0px" y="0px"
	 viewBox="0 0 500 500" style="enable-background:new 0 0 500 500;" xml:space="preserve">
<style type="text/css">
	.st0{fill:#0062CC;}
	.st1{fill:#FFFFFF;}
</style>
<circle class="st0" cx="250" cy="250" r="250"/>
<g>
	<path class="st1" d="M348.4,133H151.5c-28.8,0-52.2,23.4-52.2,52.2v131.5c0,28.8,23.4,52.2,52.2,52.2h196.9
		c28.8,0,52.2-23.4,52.2-52.2V185.2C400.7,156.4,377.3,133,348.4,133z M151.5,153.5h196.9c17.5,0,31.8,14.3,31.8,31.8v4.2H119.8
		v-4.2C119.8,167.7,134,153.5,151.5,153.5z M348.4,348.5H151.5c-17.5,0-31.8-14.3-31.8-31.8v-80.6h260.4v80.6
		C380.2,334.3,366,348.5,348.4,348.5z"/>
	<path class="st1" d="M333.8,287.3c-5.9,0-11,3.1-13.9,7.7c-2.9-4.6-8.1-7.7-13.9-7.7c-9.1,0-16.5,7.4-16.5,16.5
		c0,9.1,7.4,16.5,16.5,16.5c5.9,0,11-3.1,13.9-7.7c2.9,4.6,8.1,7.7,13.9,7.7c9.1,0,16.5-7.4,16.5-16.5
		C350.3,294.7,343,287.3,333.8,287.3z"/>
</g>
</svg>
