<?xml version="1.0" encoding="utf-8"?>
<!-- Generator: Adobe Illustrator 23.0.0, SVG Export Plug-In . SVG Version: 6.00 Build 0)  -->
<svg version="1.1" id="图层_1" xmlns="http://www.w3.org/2000/svg" xmlns:xlink="http://www.w3.org/1999/xlink" x="0px" y="0px"
	 viewBox="0 0 500 500" style="enable-background:new 0 0 500 500;" xml:space="preserve">
<style type="text/css">
	.st0{fill:#0C7730;}
	.st1{fill:#FFFFFF;}
</style>
<path class="st0" d="M250,500L250,500C116.9,500,9,392.1,9,259v-18C9,107.9,116.9,0,250,0h0c133.1,0,241,107.9,241,241v18
	C491,392.1,383.1,500,250,500z"/>
<g>
	<path class="st1" d="M368.5,385h-239c-8.6,0-15.5-6.9-15.5-15.5c0,0,0,0,0,0v-239c0-8.6,6.9-15.5,15.5-15.5h78.6
		c8.6,0,15.5,6.9,15.5,15.5s-6.9,15.5-15.5,15.5c0,0,0,0,0,0H145V354H353v-63.1c0-8.6,6.9-15.5,15.5-15.5c8.6,0,15.5,6.9,15.5,15.5
		v78.6C384,378.1,377.1,385,368.5,385L368.5,385"/>
	<path class="st1" d="M317.3,328.4c0,9.1-7.4,16.6-16.5,16.6c-9.1,0-16.6-7.4-16.6-16.5s7.4-16.6,16.5-16.6c0,0,0,0,0,0
		C309.9,311.8,317.3,319.2,317.3,328.4 M301,304.7c-8.6,0-15.5-6.9-15.5-15.5c0,0,0,0,0,0c0-28.7,20.8-44.1,37.5-56.5
		c18.6-13.8,30-23.3,30-42.6c0-24.3-19.7-44-44-44c-24.3,0-44,19.7-44,44c0,8.6-6.9,15.5-15.5,15.5c-8.6,0-15.5-6.9-15.5-15.5
		c0-41.4,33.7-75,75-75s75,33.7,75,75c0,35.9-23.6,53.5-42.5,67.6c-15.9,11.9-25,19.2-25,31.6C316.5,297.8,309.5,304.7,301,304.7
		L301,304.7"/>
</g>
</svg>
