<?xml version="1.0" encoding="utf-8"?>
<!-- Generator: Adobe Illustrator 23.0.0, SVG Export Plug-In . SVG Version: 6.00 Build 0)  -->
<svg version="1.1" id="图层_1" xmlns="http://www.w3.org/2000/svg" xmlns:xlink="http://www.w3.org/1999/xlink" x="0px" y="0px"
	 viewBox="0 0 500 500" style="enable-background:new 0 0 500 500;" xml:space="preserve">
<style type="text/css">
	.st0{fill:#F38A00;}
	.st1{fill:#FFFFFF;}
</style>
<g>
	<path class="st0" d="M0,250c0,138.1,111.9,250,250,250s250-111.9,250-250C500,112,388.1,0,250,0C112,0,0,111.9,0,250
		C0,250,0,250,0,250z"/>
</g>
<path class="st1" d="M246.3,233.8c0.4-0.5,0.8-0.9,1.3-1.3c0,0,0.1-0.1,0.1-0.1c2.6-2.8,5.4-5.4,8.3-7.8l0.4-0.3
	c0.4-0.4,0.8-0.7,1.2-1.1c0.1-0.1,0.2-0.2,0.3-0.2c1.3-1.1,2.7-2.1,4.1-3.1c0.1-0.2,0.3-0.3,0.4-0.4c0.4-0.3,0.8-0.5,1.2-0.8
	c0.2-0.2,0.4-0.3,0.6-0.5c0.2-0.2,0.7-0.5,1.1-0.7c0.4-0.2,0.5-0.3,0.7-0.5s0.7-0.5,1.1-0.7c0.4-0.2,0.5-0.3,0.7-0.5
	c0.9-0.5,1.8-1.1,2.7-1.5c0,0,0.1-0.1,0.1-0.1v-13c-0.1-9-7.5-16.3-16.5-16.2c0,0,0,0,0,0H113c-9-0.1-16.5,7.1-16.6,16.1
	c0,0,0,0,0,0v16.2c0.1,9,7.5,16.3,16.5,16.2C112.9,233.8,246.3,233.8,246.3,233.8z M129.6,168.9h141.2c9,0.1,16.5-7.1,16.6-16.1
	c0,0,0,0,0,0v-16.2c-0.1-9-7.5-16.3-16.5-16.2c0,0,0,0,0,0H129.6c-9-0.1-16.5,7.1-16.6,16.2v16.2C113.1,161.8,120.5,169,129.6,168.9
	C129.5,168.9,129.6,168.9,129.6,168.9z M113,266.2v16.1c0.1,9,7.5,16.3,16.5,16.2h91.4v-2.8c0-0.7,0-1.4,0.1-2.2v-0.1
	c0-0.7,0.1-1.3,0.1-2.1v-0.5c0.1-1.5,0.2-2.9,0.4-4.4c0-0.2,0-0.4,0.1-0.6l0.3-2c0-0.1,0-0.3,0.1-0.4c0.1-0.6,0.2-1.2,0.3-1.7
	c0-0.3,0.1-0.5,0.1-0.7c0.2-0.8,0.3-1.7,0.5-2.5l0.4-1.6l0.1-0.6c0.2-0.7,0.3-1.3,0.5-1.9l0.2-0.6l0.4-1.5c0.1-0.2,0.1-0.4,0.2-0.7
	c0.2-0.6,0.4-1.2,0.6-1.8c0.1-0.2,0.1-0.5,0.2-0.7c0.1-0.4,0.3-0.9,0.4-1.3c0.1-0.2,0.2-0.5,0.2-0.7c0.2-0.6,0.4-1.2,0.6-1.8
	c0.1-0.2,0.2-0.5,0.3-0.7l0.5-1.2l0.3-0.8c0.2-0.6,0.5-1.1,0.7-1.6c0.1-0.3,0.2-0.5,0.3-0.8l0.5-1.2c0.1-0.3,0.2-0.5,0.4-0.8
	c0.2-0.6,0.5-1.1,0.8-1.6c0.1-0.3,0.3-0.5,0.4-0.8c0.1-0.3,0.3-0.7,0.5-1.1c0.1-0.3,0.3-0.5,0.4-0.8c0.3-0.6,0.5-1.1,0.8-1.5
	l0.5-0.9c0.2-0.3,0.4-0.7,0.6-1c0.2-0.3,0.3-0.5,0.5-0.8H129.5C120.5,249.9,113.1,257.2,113,266.2L113,266.2z M320.6,217.5
	c-44.8,1.1-80.2,38.3-79.1,83c1.1,44.8,38.3,80.2,83,79.1c44-1.1,79.1-37,79.1-81.1C403.1,253.3,365.9,217,320.6,217.5L320.6,217.5z
	 M370.4,314.8h-58.1c-4.5,0-8.2-3.6-8.3-8.1v-40.5c0.2-4.6,4-8.2,8.6-8c4.4,0.1,7.9,3.7,8,8v32.4h49.8c4.5,0,8.1,3.6,8.1,8.1
	C378.5,311.2,374.9,314.8,370.4,314.8L370.4,314.8z M121.3,314.8c-9-0.1-16.5,7.1-16.6,16.1c0,0,0,0,0,0v16.2
	c0.1,9.1,7.5,16.3,16.6,16.2h125c-12.5-13.5-20.9-30.4-24-48.6H121.3L121.3,314.8z"/>
</svg>
